<svg xmlns="http://www.w3.org/2000/svg" aria-hidden="true" style="position:absolute;width:0;height:0;overflow:hidden"><defs>

<symbol id="icon-accept" viewBox="0 0 32 32"><path d="M0 16C0 7.162 7.162 0 16 0s16 7.162 16 16c0 8.837-7.163 16-16 16S0 24.837 0 16zm23.237-2.762c.681-.681.681-1.794 0-2.475s-1.794-.681-2.475 0l-6.763 6.762-2.763-2.762c-.681-.681-1.794-.681-2.475 0s-.681 1.794 0 2.475l4 4a1.755 1.755 0 0 0 2.475 0l8-8z"/></symbol><symbol id="icon-error" viewBox="0 0 32 32"><path d="M0 16C0 7.162 7.162 0 16 0s16 7.162 16 16c0 8.837-7.163 16-16 16S0 24.837 0 16zm10.938-2.994 2.944 2.938-2.944 2.994c-.581.588-.581 1.538 0 2.069.588.637 1.537.637 2.069 0l2.938-2.888 2.994 2.888c.588.637 1.538.637 2.069 0 .637-.531.637-1.481 0-2.069l-2.888-2.994 2.888-2.938c.637-.531.637-1.481 0-2.069-.531-.581-1.481-.581-2.069 0l-2.994 2.944-2.938-2.944c-.531-.581-1.481-.581-2.069 0-.581.588-.581 1.537 0 2.069z"/></symbol>

</defs></svg>